PathFileType	4	(X/Y/Z)	21_1_39_p0_0-559.trc
DataRate	CameraRate	NumFrames	NumMarkers	Units	OrigDataRate	OrigDataStartFrame	OrigNumFrames
56.0	56.0	6	27	m	56.0	0	560
Frame#	Time	RHip			RKnee			RAnkle			RBigToe			RSmallToe			RHeel			LHip			LKnee			LAnkle			LBigToe			LSmallToe			LHeel			Neck			Head			Nose			RShoulder			RElbow			RWrist			RThumb			RIndex			RPinky			LShoulder			LElbow			LWrist			LThumb			LIndex			LPinky			
		X1	Y1	Z1	X2	Y2	Z2	X3	Y3	Z3	X4	Y4	Z4	X5	Y5	Z5	X6	Y6	Z6	X7	Y7	Z7	X8	Y8	Z8	X9	Y9	Z9	X10	Y10	Z10	X11	Y11	Z11	X12	Y12	Z12	X13	Y13	Z13	X14	Y14	Z14	X15	Y15	Z15	X16	Y16	Z16	X17	Y17	Z17	X18	Y18	Z18	X19	Y19	Z19	X20	Y20	Z20	X21	Y21	Z21	X22	Y22	Z22	X23	Y23	Z23	X24	Y24	Z24	X25	Y25	Z25	X26	Y26	Z26	X27	Y27	Z27	
0	0.0	0.3145486010535	0.5339580982696375	1.0769499204109951	0.301505948460073	0.5724999700813878	1.5320033634162076	0.27902221522493925	0.6819089569383356	1.9799779499293788	0.2791938226534732	0.47586454538672757	2.0074890697305117	0.3399411902917585	0.5117464385728978	2.006514235798424	0.2548213451390744	0.7162041447250485	2.0063145135135985	0.10563187529459335	0.5312101864914505	1.074002116133717	0.09449618477131853	0.5811890286778482	1.544245865115981	0.1081143256061706	0.6158518831117606	1.9533535031501088	0.11674644693324555	0.41464948644859373	1.9720366856471643	0.05418370935516591	0.48308241874108465	1.98933363992172	0.13481963984343792	0.6897826818184316	2.016561259012771	0.2264958518034063	0.49881799125168047	0.5099479298795271	0.24514438634616642	0.4366467659799802	0.2560085429139251	0.2452511072694463	0.41325792910066356	0.3981257440096134	0.3669057017152252	0.4809437439948115	0.6124577005308168	0.373009770693454	0.4646923817948347	0.8893964326148268	0.22412079531419338	0.3446345028199741	1.04260325713138	0.141090552575502	0.3035088843517648	1.114115847776657	0.1485302715605486	0.30412816829710204	1.1399542243135052	0.1761015016385135	0.3248159914174599	1.1719552051274231	0.0776138919583483	0.5027585821117873	0.6017637061898756	0.06034054298752503	0.4475983865085671	0.8664305276065427	0.1193351033790875	0.3456303260702278	1.0502741008210938	0.16806209764771662	0.26679329226957865	1.106121787490762	0.17876050871346144	0.26716013097071223	1.1547931211993634	0.15408891126090674	0.31807970284653264	1.166295989811579
1	0.017857142857142856	0.3106502783296482	0.5217090651387395	1.0782453730380162	0.30475314753665705	0.585084363777874	1.5369593017187293	0.2782859785538575	0.680187964513511	1.9744995077009473	0.27992773996027176	0.4755577951582883	2.003267137010844	0.3358182160212761	0.5263930548100627	2.015387623885515	0.2623709473402025	0.7143231185122475	2.0061931361265763	0.11104493927652445	0.5174815602272521	1.0705140248256484	0.09435034569846157	0.5818750977801879	1.5399811020606446	0.10632046591093479	0.6178747026093937	1.9550295063977952	0.11629774288041918	0.41619051537389307	1.9724027990625856	0.05309397418038499	0.48382455597269414	1.9928976485907395	0.13318667503749854	0.6885276565234553	2.015322549874521	0.2264110963252773	0.49887423422927196	0.5100559184241763	0.24517557233343878	0.4364799240451983	0.25602233694323184	0.24285379213058783	0.40439894092070056	0.40097094853545917	0.3629977238302909	0.4794637054809168	0.6125467378814174	0.3728746654200047	0.46466013001563083	0.889501148260376	0.21882747682836132	0.3567916668209068	1.0496991693607691	0.12959049410726575	0.3266028680453506	1.1213872108830458	0.13313577250066203	0.32987971454123	1.1553189236140375	0.18218167813496056	0.3634058614095644	1.1924472233919876	0.07766678426966307	0.502584479226888	0.6017671921637257	0.060149144014818336	0.4478184484464493	0.8660441011148994	0.12285432560376348	0.34696307262318465	1.0465601322811509	0.16643986503058708	0.2808620799398053	1.1107333763908638	0.17815884651182956	0.2705326640755051	1.154812593505986	0.15820337273895987	0.316908027883652	1.1609869154398988
2	0.03571428571428571	0.31060601029881313	0.5215381068230519	1.0781891031841262	0.30138103845886166	0.572485335141486	1.5319588095380652	0.2759523961977014	0.6684183885691224	1.9727924256931737	0.27999254666494183	0.47457200116859855	2.0027172537292777	0.3323456150072193	0.5143808748323725	2.0086793158315412	0.2596569636043659	0.6993511865284326	1.9975630109882976	0.1109852333683337	0.5174451933023048	1.0705841163739467	0.09478014169543524	0.5805766160074065	1.5438151448284847	0.10635175968853253	0.6178574456562836	1.954998685726235	0.11541419027860808	0.41637647735966316	1.9762910906819084	0.05302052346568505	0.483673132397472	1.993312696978376	0.13153553711297375	0.6769985105225246	2.0134083898488297	0.22642593043470494	0.49887180976160783	0.5100017136695418	0.24524220493405263	0.4376144458504378	0.25934753656216764	0.24522443880519765	0.41421049385263375	0.4045521608598367	0.36313387929259355	0.4794011779529687	0.6124415297393028	0.3728313790501654	0.46459140779913005	0.889539398242499	0.21928587973003466	0.3583113546420545	1.0540397259066432	0.1295623397963223	0.3269191265370769	1.1210565829699413	0.1329853346707958	0.32984103432770917	1.1552342825764028	0.17616721214923675	0.36288493746172895	1.1932185843477632	0.07765283428130793	0.5027084396656266	0.6017857979169856	0.0602517746539189	0.44778503178286044	0.8662308726980869	0.12225788957008198	0.34701260210146156	1.0502388677088672	0.1738823120997451	0.2712547662401201	1.1114736799254483	0.17830305197675622	0.27066336083854187	1.1551173250491467	0.16363632896370367	0.3042243673884424	1.1649621621443786
3	0.05357142857142857	0.310458182609034	0.522542902241887	1.0744446775079175	0.3012483135725073	0.5719593166721234	1.5317268438087155	0.2759385589040927	0.66817164506478	1.9725850054462974	0.27711191092873194	0.4616018418903582	1.9955019792247306	0.33202672839557046	0.5160840700738172	2.0097912546472587	0.25344749715793286	0.7156228620487293	2.010984476545627	0.11103502629078742	0.5176425294777518	1.0704428530618366	0.09418035928790477	0.5816638157454899	1.5399821246184997	0.10916718757475237	0.6313576817374403	1.9621124838264778	0.11546606195356042	0.4153797063004764	1.9762430113084284	0.0530303747900226	0.4835269451610782	1.9938175567049434	0.13381152497634388	0.69118048982127	2.0216161474609895	0.22642687012225032	0.4988188286322219	0.5099834778240481	0.24520568806317425	0.4365228900472243	0.2560241440620747	0.24518414233177685	0.41414456570467434	0.4045502414410457	0.3631214006577998	0.4792123928186975	0.612406107420169	0.37284833904046805	0.4645610614948454	0.8894770060803301	0.2279815725117605	0.34853648818309013	1.051287224585119	0.13391928855685162	0.3167680506952594	1.1150911399557957	0.13388037123199586	0.3197579781489492	1.1567644639947015	0.1829948839500797	0.3633029221404483	1.199810364299136	0.07762344420034537	0.5026837255145066	0.6017627172805075	0.060313688053540586	0.44777748782903526	0.8665335047985798	0.1223395042667503	0.3468142070788383	1.050111070092245	0.17448991093978022	0.2717804048214992	1.1075491391640213	0.17829459117970836	0.2735321765150118	1.1560505808454185	0.16438523375961372	0.2943420193387289	1.1617990242690115
4	0.07142857142857142	0.3107563933359174	0.5214596210653801	1.0782042678452017	0.2982859238671522	0.570302717332725	1.53996308423763	0.27972813767434385	0.6824192990937735	1.9797982702411758	0.27979863177749753	0.47672353452073224	1.9992077651664932	0.33933623027559656	0.5124592479786115	2.0068355818055936	0.2679357554326852	0.7194038818099947	2.015807646139704	0.11153163646965704	0.5192480637316714	1.0750460620950388	0.09446089947313466	0.5805060243719845	1.544109196012476	0.10779818563959577	0.6176698047692483	1.9493020969733401	0.1108568654181256	0.42714129642640875	1.9751016648732782	0.054055640288530216	0.4835368537397671	1.9893613990413543	0.13515494346540602	0.6898862290875777	2.0159914827699588	0.2263739974245647	0.49883253693373036	0.5100583184915068	0.24519885533442382	0.43653627793699834	0.25600799100176597	0.24261924831905293	0.40306491734860905	0.40125557633196723	0.36320391523650025	0.479218761968491	0.612354511172889	0.37292216987580423	0.4643957801611136	0.8893504890114644	0.23238297363688484	0.35055377000034527	1.0516880579522176	0.13422686941610754	0.31714396954189794	1.1089540377944525	0.13613037827207267	0.33246016056232014	1.1603431517799752	0.18195136499678174	0.3639007523968347	1.199231592564987	0.07763763193892563	0.5026368597686653	0.6017662484955066	0.06021794605748928	0.44755388549976755	0.8663933199337636	0.12330606778182443	0.34836436620660755	1.050637871300538	0.17133971109588056	0.270922258299626	1.1045588924615635	0.17769632973723581	0.2763079352233751	1.1500791674261914	0.16375779677858293	0.29857220966612413	1.1606605876271425
5	0.08928571428571429	0.3107447304744766	0.521560213458814	1.0782115112486985	0.2972881173175175	0.5679287032977484	1.5347582783891731	0.2798174564932015	0.6827832194647034	1.9798758671771102	0.27978403771609933	0.4763030850893813	1.999006771024331	0.339396139040925	0.513320178008652	2.007453577276338	0.2681308437414248	0.7200234711203488	2.015948097257536	0.11158248347112452	0.519301980435805	1.0751049597424371	0.09126207087157774	0.5684858630634617	1.5432544266901098	0.10929019431341427	0.6316552332531943	1.9618021354890587	0.10893034951632893	0.41475956280529075	1.9680607579020806	0.054076634740214936	0.483341434944464	1.9893039353255972	0.1352030120089269	0.6902712493399145	2.0165412044312676	0.22637371428024242	0.498780927734705	0.5100832217741786	0.2452312700572051	0.43657714041063284	0.25598628716568284	0.2451220926988371	0.412937704627924	0.40154840235405376	0.3631874822762306	0.4791498600987123	0.6123599903971099	0.3726061059998201	0.46299150282115137	0.8851931779994577	0.23922150532605413	0.3631164072574117	1.0548949883955354	0.13398942964782495	0.3181577302759629	1.1056174489885784	0.13497370882999152	0.32898874632141717	1.150322017613639	0.18570323268458327	0.36319598265504605	1.1982587418374313	0.07763812733333772	0.5024872677810337	0.6017328914151004	0.06022971503769562	0.4478340095850867	0.8666481307468948	0.11946580818277217	0.34601925984736165	1.0501981308919164	0.1744255238643094	0.2730207191793363	1.1049646505110262	0.1778984481226498	0.2745622715206327	1.1413696944955882	0.16252335055624093	0.29742628662730597	1.1599619938147687
